# xmcd
#
# Track frame offsets: 
#        150
#        13351
#        24039
#        37356
#        47663
#        59808
#        72943
#        86759
#        98800
#        109566
#        119314
#        132756
#        146111
#        161000
#        172553
#        185539
#        197525
#        220660
#
# Disc length: 3144 seconds
#
# Revision: 2
# Processed by: cddbd v1.5.2PL0 Copyright (c) Steve Scherf et al.
# Submitted via: ExactAudioCopy v1.0b1
#
DISCID=fc0c4612
DTITLE=B.B. King - B.B. King Wails
DYEAR=1959
DGENRE=Blues
TTITLE0=Sweet Thing (stereo)
TTITLE1=I've Got Papers On You, Baby (stereo)
TTITLE2=Tomorrow Is Another Day (stereo)
TTITLE3=Come By Here (stereo)
TTITLE4=The Fool (stereo)
TTITLE5=I Love You So (stereo)
TTITLE6=The Woman I Love (stereo)
TTITLE7=We Can't Make It (stereo)
TTITLE8=Treat Me Right (stereo)
TTITLE9=Time To Say Goodbye (stereo)
TTITLE10=You've Been An Angel (take 2) (mono)
TTITLE11=Yesterday (stereo)
TTITLE12=My Silent Prayer (stereo)
TTITLE13=I Stay In The Mood (mono)
TTITLE14=Why I Sing The Blues (take 4) (mono)
TTITLE15=Trouble in Mind (mono)
TTITLE16=Every Day I Have the Blues (stereo)
TTITLE17=Yes, Indeed! (stereo)
EXTD=
EXTT0=
EXTT1=
EXTT2=
EXTT3=
EXTT4=
EXTT5=
EXTT6=
EXTT7=
EXTT8=
EXTT9=
EXTT10=
EXTT11=
EXTT12=
EXTT13=
EXTT14=
EXTT15=
EXTT16=
EXTT17=
PLAYORDER=
